<?xml version="1.0" standalone="no"?>
<!DOCTYPE svg PUBLIC "-//W3C//DTD SVG 20010904//EN"
 "http://www.w3.org/TR/2001/REC-SVG-20010904/DTD/svg10.dtd">
<svg version="1.0" xmlns="http://www.w3.org/2000/svg"
 width="770.000000pt" height="122.000000pt" viewBox="0 0 770.000000 122.000000"
 preserveAspectRatio="xMidYMid meet">

<g transform="translate(0.000000,122.000000) scale(0.100000,-0.100000)"
fill="#000000" stroke="none">
<path d="M650 1165 c-324 -72 -614 -441 -613 -780 0 -109 26 -185 81 -242 108
-112 262 -116 423 -12 61 40 167 139 228 214 27 33 32 35 25 15 -14 -49 -11
-55 33 -58 41 -3 42 -2 62 44 15 32 18 51 11 63 -8 14 -9 14 -10 -3 0 -11 -3
-16 -7 -13 -8 9 38 108 47 102 4 -3 7 2 6 11 0 9 9 20 22 25 l23 9 -27 -45
c-38 -66 -23 -55 20 14 38 62 87 111 112 111 20 0 19 -2 -27 -102 -23 -49 -38
-92 -34 -96 3 -3 11 0 16 8 9 12 10 12 5 -3 -3 -10 -6 -24 -6 -30 0 -7 -4 -6
-10 3 -8 13 -10 12 -10 -2 0 -10 5 -18 10 -18 14 0 13 -47 -1 -52 -20 -7 1
-48 27 -54 41 -10 74 5 134 62 l57 54 16 -40 c16 -41 46 -61 90 -59 l22 0 -21
9 c-32 12 -34 22 -20 64 13 38 13 38 20 12 4 -16 13 -26 24 -26 16 1 16 1 0
11 -26 14 -22 43 14 116 50 102 130 171 153 133 4 -6 1 -18 -7 -27 -11 -14
-11 -16 1 -8 10 5 12 4 7 -4 -4 -6 -3 -18 4 -26 7 -9 8 -15 0 -20 -10 -6 -11
-5 -14 14 0 5 -5 13 -9 18 -5 4 -8 3 -7 -2 5 -23 -1 -36 -12 -29 -9 5 -9 2 1
-9 15 -19 26 -23 15 -5 -4 7 -3 8 5 4 9 -6 9 -13 -2 -29 -7 -12 -17 -28 -21
-35 -4 -7 -12 -9 -18 -6 -8 5 -6 11 3 18 16 12 18 30 6 43 -5 4 -7 3 -6 -2 4
-11 -42 -87 -75 -124 -12 -13 -14 -21 -6 -16 13 7 13 6 0 -8 -8 -9 -30 -17
-48 -19 -17 -1 -32 -5 -32 -9 0 -16 39 -18 73 -4 34 14 36 14 42 -5 9 -28 47
-35 89 -15 44 21 153 135 231 241 57 77 72 94 88 94 17 0 4 -43 -48 -150 -63
-132 -70 -176 -28 -186 14 -4 33 -3 42 3 9 5 43 62 76 126 63 123 102 177 129
177 24 0 20 -22 -25 -132 -45 -110 -53 -155 -28 -171 32 -20 63 0 92 59 15 31
25 59 22 62 -3 3 -5 0 -5 -7 0 -7 -4 -9 -10 -6 -6 3 -7 -1 -4 -10 5 -11 2 -14
-12 -9 -16 5 -16 4 -4 -5 13 -9 13 -11 -2 -11 -10 0 -18 -5 -18 -12 0 -6 -3
-9 -6 -5 -11 11 85 199 97 191 8 -4 9 -3 5 4 -10 17 2 32 19 26 12 -5 9 -17
-15 -65 -17 -32 -28 -59 -25 -59 2 0 16 22 30 50 43 86 115 151 115 106 0 -8
-20 -56 -44 -106 -54 -110 -65 -164 -42 -209 29 -55 81 -51 152 11 29 25 36
28 30 13 -14 -38 -75 -142 -91 -155 -13 -11 -13 -15 -3 -21 22 -15 54 -10 81
11 30 24 83 117 79 138 -2 9 1 11 9 6 8 -4 10 -3 5 5 -4 6 2 28 13 47 12 20
18 40 15 46 -5 7 -2 8 6 3 10 -6 12 -4 7 9 -5 11 -3 15 5 10 8 -5 9 -2 5 10
-5 11 -3 15 5 10 8 -5 9 -2 5 10 -5 11 -3 15 5 10 8 -5 9 -2 4 11 -6 16 -4 16
10 4 16 -13 16 -12 6 8 -10 18 -8 30 10 67 12 25 26 42 31 39 6 -4 8 1 4 11
-4 9 -3 15 2 12 5 -3 12 6 15 20 4 15 9 24 12 21 3 -2 -5 -30 -17 -62 -16 -42
-24 -54 -31 -44 -6 10 -7 6 -3 -11 5 -20 4 -22 -5 -10 -9 12 -10 10 -5 -10 5
-19 4 -22 -4 -10 -7 9 -11 10 -11 3 0 -30 20 -18 50 28 32 50 54 68 67 55 4
-4 -12 -45 -36 -92 -51 -102 -59 -140 -37 -182 32 -61 103 -49 187 32 l44 42
10 -35 c6 -21 21 -42 37 -50 24 -14 30 -14 60 1 19 9 59 39 90 67 l56 51 12
-34 c6 -20 24 -46 39 -58 27 -24 32 -24 159 -17 13 0 43 20 67 43 24 22 66 52
92 66 35 18 60 42 93 92 54 80 86 118 100 118 20 0 9 -35 -51 -162 -54 -114
-60 -132 -50 -154 9 -21 17 -25 43 -22 26 2 36 11 55 48 14 26 17 37 7 25
l-17 -20 8 20 c4 11 8 26 8 33 1 25 94 186 117 201 23 15 23 15 11 -7 -7 -12
-17 -20 -23 -16 -7 5 -8 2 -3 -6 6 -9 17 -1 42 29 36 42 63 53 63 25 0 -9 -20
-61 -45 -115 -54 -118 -64 -172 -41 -217 33 -63 88 -50 188 46 32 30 59 53 61
51 1 -2 9 -17 17 -33 45 -87 177 -100 278 -26 46 33 162 173 162 196 0 26 -19
14 -79 -49 -60 -62 -60 -62 -70 -37 -8 21 -10 22 -11 5 -1 -15 -5 -11 -16 14
-8 19 -17 31 -20 28 -3 -3 -1 -14 5 -25 6 -12 11 -29 10 -39 0 -12 -3 -10 -8
7 -5 14 -16 40 -25 59 -10 19 -13 30 -6 26 8 -5 11 -3 8 6 -3 8 -9 13 -14 12
-5 -1 -10 12 -10 28 -1 17 -9 38 -18 48 -21 23 -20 38 4 51 14 7 26 8 38 1 9
-6 13 -11 9 -11 -5 0 -1 -10 7 -22 30 -42 9 -105 -24 -75 -8 6 -6 2 4 -10 19
-23 32 -31 21 -13 -3 6 5 10 19 10 39 0 73 17 92 45 22 34 5 77 -45 107 -67
42 -192 23 -222 -33 -16 -30 -5 -57 46 -119 25 -30 48 -65 51 -77 14 -52 -25
-113 -71 -113 -32 0 -51 37 -40 77 5 15 9 30 9 33 4 19 20 30 37 25 31 -10 23
29 -12 59 -49 41 -68 34 -110 -44 -36 -68 -147 -190 -172 -190 -15 0 -18 7
-15 32 1 18 10 39 18 46 13 12 13 13 0 7 -10 -4 -9 -2 2 8 10 8 15 17 11 20
-3 4 -1 7 4 7 14 0 79 114 89 155 7 27 6 29 -9 16 -15 -12 -17 -11 -17 10 0
13 -9 39 -20 57 -22 36 -25 46 -11 37 5 -3 12 -1 16 4 3 6 -10 13 -29 17 -27
5 -45 0 -80 -19 -43 -24 -45 -24 -61 -7 -18 19 -60 35 -85 31 -26 -4 -79 -63
-127 -141 -47 -76 -90 -130 -105 -130 -4 0 -5 25 -2 54 6 46 3 61 -15 91 -12
20 -19 40 -16 44 2 5 -5 17 -17 27 -12 11 -18 13 -14 7 4 -8 2 -13 -5 -13 -7
0 -3 -10 9 -23 12 -13 22 -27 22 -33 0 -5 -5 -2 -10 6 -8 13 -10 13 -10 1 0
-11 -4 -10 -13 4 -8 10 -18 15 -23 12 -6 -3 -10 5 -10 18 0 13 5 21 11 18 7
-2 12 3 12 11 0 8 -5 12 -10 9 -5 -3 -13 0 -17 7 -6 9 -21 11 -55 6 -64 -10
-122 -65 -169 -160 -25 -51 -56 -92 -100 -135 -118 -113 -129 -65 -22 102 38
59 86 152 86 165 0 13 -56 35 -72 29 -9 -4 -7 -6 4 -6 14 -1 14 -4 -5 -25 -24
-27 -45 -14 -24 14 6 8 1 6 -12 -5 -13 -11 -48 -70 -77 -130 -30 -61 -74 -134
-100 -163 -46 -52 -83 -68 -85 -34 0 14 -2 14 -9 -3 -8 -18 -9 -18 -9 5 -1 19
-3 22 -11 10 -19 -31 -23 20 -4 62 28 63 53 91 69 78 8 -6 11 -18 8 -26 -4
-12 -8 -12 -19 3 -13 17 -14 17 -7 -1 5 -14 3 -17 -7 -11 -9 5 -11 4 -6 -3 4
-6 0 -25 -9 -41 -17 -33 -20 -55 -5 -31 9 13 10 13 10 0 1 -23 87 151 95 191
12 67 -61 118 -124 86 -27 -13 -30 -13 -34 4 -5 20 -50 42 -75 37 -9 -2 -21
-26 -29 -57 -25 -101 -86 -211 -154 -284 -72 -76 -102 -86 -98 -35 2 23 -1 32
-9 30 -10 -2 -10 3 -2 17 7 14 16 18 28 14 15 -6 15 -5 3 10 -12 16 -12 17 5
10 17 -6 17 -5 5 10 -11 15 -10 18 13 27 14 5 26 15 25 22 0 10 -2 10 -6 1 -2
-7 -9 -13 -14 -13 -7 0 25 56 50 86 5 7 13 28 16 47 8 41 -22 101 -54 112 -23
7 -67 -9 -108 -41 -18 -14 -33 -20 -33 -14 0 6 -5 8 -12 4 -7 -5 -9 -2 -5 8 3
9 -2 23 -13 33 -24 21 -61 14 -107 -21 -21 -16 -33 -20 -33 -12 -1 8 -6 6 -15
-6 -8 -11 -16 -18 -17 -15 -2 2 -13 19 -26 36 l-22 33 24 -10 c18 -6 27 -6 32
3 4 7 3 9 -1 4 -5 -4 -16 0 -26 9 -42 38 -107 -11 -191 -141 -66 -101 -149
-197 -191 -220 -67 -36 -61 -2 18 103 40 53 48 71 52 120 4 46 2 61 -13 77
-11 12 -18 19 -17 17 1 -2 -3 -10 -10 -17 -9 -9 -19 -10 -40 -3 -15 6 -42 7
-59 4 -17 -3 -28 -3 -25 1 4 4 26 10 50 14 37 7 36 8 -13 4 -40 -3 -51 -2 -40
6 11 8 9 9 -10 3 -63 -17 -123 -83 -170 -187 -31 -69 -126 -177 -156 -177 -29
0 -26 30 10 92 90 158 100 183 86 217 -7 17 -17 31 -22 31 -5 0 -4 -9 2 -20
15 -29 5 -25 -15 6 -9 15 -13 24 -7 20 5 -3 12 3 15 14 3 13 0 20 -9 20 -21 0
-18 8 19 51 48 56 86 130 93 182 6 40 3 48 -21 72 -23 23 -32 27 -67 22 -56
-7 -126 -53 -171 -112 -46 -60 -114 -197 -160 -322 -39 -103 -64 -140 -187
-267 -133 -138 -247 -206 -346 -206 -210 0 -227 295 -32 583 118 175 330 327
454 327 39 0 84 -36 84 -68 0 -28 -40 -83 -79 -109 -26 -18 -42 -21 -71 -17
-35 6 -40 4 -54 -24 -21 -41 -20 -68 4 -92 47 -47 158 -13 247 75 50 50 65 72
78 119 52 178 -95 283 -325 231z m290 -157 c0 -41 -26 -98 -62 -135 -39 -40
-58 -44 -22 -5 46 48 57 80 51 145 -5 57 -5 58 14 41 10 -9 19 -30 19 -46z
m-60 17 c18 -22 6 -80 -25 -121 -14 -19 -31 -34 -36 -34 -6 0 1 14 15 30 30
36 42 90 27 119 -13 24 0 28 19 6z m302 -24 c-28 -10 -62 -27 -75 -37 l-22
-19 18 22 c24 27 75 53 107 52 17 0 8 -6 -28 -18z m-2 -113 c0 -13 -4 -29 -9
-37 -5 -8 -6 -24 -1 -37 6 -15 4 -28 -6 -40 -9 -11 -12 -12 -8 -4 6 12 4 13
-7 3 -16 -16 -33 -17 -23 -1 4 7 3 8 -5 4 -6 -4 -10 -10 -8 -14 2 -4 -20 -29
-49 -55 -41 -38 -53 -44 -58 -32 -3 9 -2 14 2 11 5 -3 17 12 26 32 44 93 115
192 136 192 6 0 10 -10 10 -22z m-134 -129 c-20 -35 -36 -60 -36 -56 0 14 61
129 66 124 3 -3 -11 -33 -30 -68z m1085 -56 c13 -16 12 -17 -3 -4 -17 13 -22
21 -14 21 2 0 10 -8 17 -17z m-2 -37 c-2 -2 -13 8 -23 22 l-19 27 24 -22 c12
-12 21 -24 18 -27z m204 13 c33 -45 14 -53 -22 -9 -25 32 -29 41 -16 38 10 -1
27 -15 38 -29z m1939 -26 c19 -17 24 -58 9 -67 -10 -6 -51 70 -43 79 8 8 14 6
34 -12z m-1614 -15 c7 -7 12 -23 11 -37 l-1 -26 -10 28 c-5 15 -14 25 -19 21
-5 -3 -14 -2 -20 2 -8 4 -7 9 2 15 18 12 23 11 37 -3z m307 -46 c-4 -23 -66
-122 -76 -122 -4 0 -11 -9 -14 -21 -4 -11 -9 -18 -12 -16 -6 7 21 59 64 125
38 56 44 62 38 34z m-1058 -109 c-28 -54 -56 -102 -62 -108 -7 -5 -18 -19 -24
-30 -27 -46 2 32 42 110 50 100 66 125 82 125 7 0 -9 -41 -38 -97z m1279 36
c-1 -47 2 -54 37 -84 l37 -32 -24 -17 c-81 -52 -123 23 -75 135 12 27 22 49
23 49 2 0 2 -23 2 -51z m120 16 c10 -26 -5 -85 -22 -85 -8 0 -13 4 -9 9 3 5 1
12 -4 15 -21 13 -20 -14 1 -28 12 -9 17 -16 10 -16 -6 0 -21 9 -33 21 -25 25
-23 84 3 84 9 0 20 4 24 8 12 11 24 8 30 -8z m-630 -92 c-8 -15 -15 -25 -16
-21 0 12 23 58 27 54 3 -2 -2 -17 -11 -33z m-2568 -215 c24 -54 89 -113 139
-127 57 -16 131 -13 193 9 30 10 57 17 59 15 10 -11 -100 -48 -154 -52 -82 -7
-138 10 -190 58 -54 49 -83 116 -89 205 l-6 69 14 -67 c8 -37 23 -86 34 -110z
m3133 120 c-31 -24 -83 -23 -106 2 -19 21 -18 21 40 5 11 -3 31 1 45 8 34 19
49 8 21 -15z m895 1 c25 11 26 10 14 -4 -9 -11 -26 -15 -56 -13 -23 2 -40 5
-38 7 2 2 -1 11 -8 18 -8 11 -2 10 25 -3 30 -15 41 -15 63 -5z m-1016 -14 c14
-19 14 -19 -2 -6 -10 7 -18 18 -18 24 0 6 1 8 3 6 1 -2 9 -13 17 -24z m-2922
-144 c34 -46 68 -64 134 -70 62 -6 63 -7 23 -14 -43 -7 -104 6 -140 29 -31 20
-65 87 -65 125 l1 34 14 -39 c8 -22 22 -51 33 -65z"/>
<path d="M4268 613 c5 -21 7 -23 10 -9 2 10 0 22 -6 28 -6 6 -7 0 -4 -19z"/>
<path d="M3251 504 c0 -11 3 -14 6 -6 3 7 2 16 -1 19 -3 4 -6 -2 -5 -13z"/>
<path d="M5140 1161 c-87 -19 -161 -81 -175 -146 -5 -25 -3 -24 13 10 19 40
73 95 94 95 5 0 -4 -12 -22 -26 -41 -35 -57 -69 -76 -158 -15 -72 -14 -76 6
-125 12 -27 30 -57 41 -66 18 -17 17 -19 -8 -69 -38 -76 -39 -77 -80 -60 -19
8 -47 13 -62 11 -22 -3 -21 -4 9 -7 l35 -3 -35 -7 -35 -7 35 -3 35 -2 -30 -9
c-29 -8 -29 -8 7 -6 20 2 34 -1 32 -5 -3 -4 -15 -8 -27 -8 -12 -1 -39 -7 -59
-14 -23 -8 -35 -9 -31 -3 4 6 0 8 -10 4 -28 -11 -19 2 16 23 34 21 30 28 -5 9
-11 -6 -22 -8 -25 -5 -3 3 9 12 28 20 19 9 26 15 17 16 -27 0 -101 -63 -126
-107 -49 -90 -34 -208 36 -282 134 -141 450 -158 628 -36 132 91 159 230 63
326 -34 34 -37 40 -22 45 99 33 188 108 224 189 75 169 -16 330 -218 386 -76
22 -220 32 -273 20z m272 -86 c62 -44 91 -105 85 -180 -7 -101 -67 -189 -160
-237 -46 -23 -189 -38 -200 -21 -9 14 177 324 224 374 21 23 36 46 33 50 -3 5
-22 13 -44 19 -81 22 -125 -19 -237 -217 -50 -88 -58 -99 -61 -76 -6 45 28
150 68 212 54 83 106 113 187 109 50 -3 71 -10 105 -33z m-350 2 c-29 -31 -28
-45 1 -21 l22 19 -18 -22 c-10 -12 -27 -48 -38 -80 l-20 -58 5 44 c3 30 1 40
-5 30 -5 -7 -9 -25 -10 -39 -1 -17 -3 -20 -6 -7 -7 27 16 85 49 123 17 19 33
34 36 34 3 0 -4 -10 -16 -23z m534 -122 c22 -54 18 -123 -11 -182 -15 -28 -33
-57 -42 -65 -12 -9 -10 -2 6 29 26 53 27 69 1 26 -26 -44 -33 -42 -13 5 17 41
23 140 10 187 l-8 30 17 -23 c9 -13 20 -47 25 -75 l8 -52 -4 60 c-2 33 -6 68
-10 78 -4 9 -4 17 -1 17 4 0 14 -16 22 -35z m44 -74 c0 -73 -17 -125 -54 -164
-17 -19 -26 -26 -19 -17 35 46 57 117 57 187 0 40 4 67 8 60 4 -7 8 -36 8 -66z
m-462 -118 c-60 -104 -121 -209 -134 -235 -13 -27 -27 -48 -29 -48 -3 0 11 31
30 70 38 75 41 85 24 75 -6 -4 1 16 15 44 33 65 33 78 0 24 -26 -45 -43 -59
-23 -20 6 12 34 59 61 105 47 79 65 101 51 65 -4 -11 -3 -14 5 -9 17 10 15 -7
-4 -30 -14 -18 -15 -18 -8 6 6 24 6 24 -10 5 -17 -23 -21 -39 -6 -30 13 8 13
-1 0 -26 -6 -10 -9 -19 -7 -19 6 0 77 119 77 128 0 3 -7 -3 -15 -14 -25 -33
-16 -6 11 36 29 44 36 50 28 23 -3 -10 4 -6 16 10 12 15 23 27 25 27 2 0 -46
-84 -107 -187z m362 117 c0 -38 -31 -130 -43 -130 -2 0 5 26 16 58 13 40 17
71 13 102 -4 31 -3 40 4 30 5 -8 10 -35 10 -60z m-510 -330 c-11 -22 -23 -40
-25 -40 -3 0 4 18 15 40 11 22 23 40 25 40 3 0 -4 -18 -15 -40z m-250 26 c0
-2 -7 -7 -16 -10 -8 -3 -12 -2 -9 4 6 10 25 14 25 6z m468 -58 c100 -40 130
-123 75 -206 -57 -83 -156 -134 -278 -140 -81 -4 -165 10 -165 29 0 5 44 86
98 180 l97 171 58 -6 c32 -3 83 -16 115 -28z m-384 -113 c-30 -58 -54 -114
-54 -125 0 -28 -15 -25 -28 5 -20 43 -15 108 11 146 26 38 81 79 108 79 15 0
8 -18 -37 -105z m584 65 c38 -57 26 -137 -34 -215 -37 -50 -49 -44 -15 8 16
23 32 53 35 67 4 14 -2 7 -14 -16 -12 -23 -33 -52 -47 -65 -25 -23 -25 -22 6
32 17 31 31 62 30 70 0 11 -2 11 -6 -1 -9 -24 -45 -81 -49 -78 -2 2 8 26 21
53 29 56 31 88 9 130 -14 28 -14 29 2 13 10 -10 21 -37 25 -60 6 -39 7 -40 8
-10 0 18 -6 49 -14 69 -18 44 -19 42 3 39 9 -2 27 -18 40 -36z"/>
<path d="M5025 1029 c-4 -6 -5 -12 -2 -15 2 -3 7 2 10 11 7 17 1 20 -8 4z"/>
<path d="M5227 893 c-4 -3 -7 -11 -7 -17 0 -6 5 -5 12 2 6 6 9 14 7 17 -3 3
-9 2 -12 -2z"/>
<path d="M5121 759 c-7 -12 -10 -23 -8 -26 3 -3 11 5 17 17 15 28 8 35 -9 9z"/>
<path d="M5105 684 c-15 -25 -25 -47 -22 -50 2 -2 16 18 31 46 34 63 27 66 -9
4z"/>
<path d="M5411 495 c0 -5 6 -19 14 -29 8 -11 15 -15 15 -10 0 6 -7 19 -15 30
-8 10 -14 15 -14 9z"/>
<path d="M5442 400 c0 -19 2 -27 5 -17 2 9 2 25 0 35 -3 9 -5 1 -5 -18z"/>
<path d="M6723 1100 c-117 -59 -251 -280 -308 -505 -22 -86 -26 -93 -95 -167
-51 -56 -78 -78 -96 -78 -20 0 -24 5 -25 33 l-1 32 -7 -30 -7 -30 -6 38 c-8
43 -1 70 15 60 7 -4 8 1 4 13 -7 18 -6 18 9 -1 16 -19 16 -19 9 5 -4 14 -5 22
-1 19 6 -6 116 94 116 106 0 3 -5 3 -11 -1 -6 -3 -3 8 6 26 9 18 15 41 12 51
-3 11 -1 17 4 13 5 -3 9 0 9 6 0 6 6 8 13 5 6 -4 -1 5 -16 19 -15 14 -35 26
-43 26 -9 0 -44 -28 -78 -62 -84 -84 -92 -90 -124 -85 l-27 4 26 2 c23 1 30
10 53 66 31 78 32 99 6 125 -30 30 -58 25 -100 -18 -52 -52 -71 -134 -47 -201
l16 -45 -42 -55 c-61 -80 -147 -137 -147 -98 0 14 16 39 72 114 33 43 41 63
45 110 4 47 2 62 -13 78 -11 12 -18 19 -17 17 1 -2 -3 -10 -10 -17 -9 -9 -19
-10 -40 -3 -15 6 -42 7 -59 4 -17 -3 -28 -3 -25 1 4 4 26 10 50 14 37 7 36 8
-13 4 -40 -3 -51 -2 -40 6 11 8 9 9 -10 3 -116 -31 -230 -252 -186 -357 15
-38 47 -58 89 -56 l22 0 -21 9 c-32 12 -34 22 -20 64 13 38 13 38 20 12 4 -16
13 -26 24 -26 16 1 16 1 0 11 -26 14 -22 43 14 116 50 102 130 171 153 133 4
-6 1 -18 -7 -27 -9 -12 -9 -15 -1 -9 9 5 11 2 7 -7 -3 -8 0 -18 5 -22 18 -11
3 -23 -24 -19 -22 2 -24 0 -14 -12 14 -17 23 -19 13 -2 -4 7 -3 8 5 4 9 -6 7
-15 -6 -36 -16 -25 -33 -38 -33 -25 0 3 0 10 0 16 0 5 4 8 9 4 17 -10 21 12 5
26 -8 7 -14 8 -12 3 3 -10 -44 -88 -76 -123 -12 -13 -14 -21 -6 -16 13 7 13 6
0 -8 -8 -9 -30 -17 -48 -19 -17 -1 -32 -5 -32 -9 0 -16 39 -18 73 -4 34 14 36
14 42 -5 9 -28 47 -35 88 -15 34 16 143 122 182 178 17 24 25 27 53 21 22 -5
31 -11 28 -20 -29 -75 -9 -174 39 -196 23 -10 33 -9 71 12 25 13 69 49 98 81
l54 58 7 -35 c13 -71 43 -104 94 -104 39 0 112 34 154 71 25 21 53 39 64 39
10 0 37 9 59 19 l42 19 6 -37 c19 -118 127 -161 253 -100 46 22 163 128 195
177 12 18 21 21 47 16 21 -5 30 -11 27 -20 -29 -75 -9 -174 39 -196 33 -15 77
5 140 63 49 45 145 170 145 188 0 23 -29 10 -56 -26 -60 -80 -147 -163 -171
-163 -19 0 -23 5 -24 33 l-1 32 -7 -30 -7 -30 -6 38 c-8 43 -1 70 15 60 7 -4
8 1 4 13 -7 18 -6 18 9 -1 16 -19 16 -19 9 5 -4 14 -5 22 -1 19 6 -6 116 94
116 106 0 3 -5 3 -11 -1 -6 -3 -3 8 6 26 9 18 15 41 12 51 -3 11 -1 17 4 13 5
-3 9 0 9 6 0 6 6 8 13 5 6 -4 -1 5 -16 19 -15 14 -35 26 -43 26 -9 0 -44 -28
-78 -62 -84 -84 -92 -90 -124 -85 l-27 4 26 2 c23 1 30 10 53 66 31 78 32 99
6 125 -30 30 -58 25 -100 -18 -28 -28 -41 -51 -50 -95 -13 -55 -10 -82 16
-144 3 -6 -29 -48 -70 -93 -42 -46 -73 -86 -70 -91 3 -5 -3 -6 -12 -2 -13 5
-15 3 -9 -8 7 -12 6 -12 -9 0 -11 10 -35 14 -64 12 l-47 -2 55 33 c59 36 129
116 110 128 -8 5 -8 15 0 34 5 15 10 45 10 66 0 21 5 40 11 42 21 7 -10 49
-49 65 -89 37 -184 -16 -244 -137 -38 -75 -68 -110 -94 -110 -10 0 -8 10 10
38 29 46 56 123 56 158 0 30 -41 74 -70 74 -11 0 -20 2 -20 5 0 3 23 33 50 67
130 162 140 290 24 304 -28 4 -51 -1 -81 -16z m128 -139 c-12 -22 -25 -42 -29
-45 -5 -3 2 16 15 41 12 26 24 56 24 67 2 20 2 20 6 -1 2 -12 -5 -40 -16 -62z
m-24 30 c-5 -44 -68 -146 -99 -162 -16 -9 -19 -8 -14 3 4 7 -5 -3 -21 -22 -92
-113 -125 -151 -129 -147 -3 2 0 16 7 29 8 19 8 31 -1 48 -8 15 -8 20 -1 16
14 -9 14 0 1 24 -8 15 -4 32 19 77 33 65 66 113 54 79 -4 -12 -3 -17 4 -13 14
9 24 -16 13 -33 -6 -9 -10 -7 -15 10 -7 22 -7 22 -26 -6 -10 -16 -16 -38 -13
-49 4 -16 3 -17 -5 -5 -12 17 -12 15 -15 -57 l-3 -53 44 78 c50 87 103 158
134 180 18 12 23 13 30 1 7 -11 9 -9 9 6 0 17 2 17 10 5 8 -12 10 -11 10 8 0
12 3 22 6 22 4 0 4 -18 1 -39z m-206 -170 c-26 -48 -28 -49 -28 -22 0 17 5 29
11 28 6 -1 10 7 9 18 -1 10 3 28 9 39 9 17 12 17 19 4 6 -11 -1 -32 -20 -67z
m-473 -43 c7 -7 11 -26 11 -42 -2 -28 -2 -28 -6 -6 -6 32 -21 50 -42 49 -11 0
-9 -3 7 -9 24 -10 27 -18 12 -40 -8 -12 -10 -12 -10 -1 0 8 -7 19 -17 26 -9 7
-13 17 -9 23 9 15 39 15 54 0z m1210 0 c7 -7 11 -26 11 -42 -2 -28 -2 -28 -6
-6 -6 32 -21 50 -42 49 -11 0 -9 -3 7 -9 24 -10 27 -18 12 -40 -8 -12 -10 -12
-10 -1 0 8 -7 19 -17 26 -9 7 -13 17 -9 23 9 15 39 15 54 0z m-1248 -78 c0
-11 -8 -37 -17 -58 l-17 -37 -3 31 c-4 34 11 84 27 84 5 0 10 -9 10 -20z m589
-3 c-19 -12 -34 -28 -34 -34 0 -6 -3 -15 -7 -19 -18 -17 -6 -25 12 -9 14 13
17 21 9 25 -13 9 27 40 51 40 8 -1 3 -7 -12 -16 -34 -18 -36 -28 -5 -19 21 6
21 5 2 -6 -11 -6 -30 -21 -42 -32 -13 -11 -23 -16 -23 -11 0 5 -7 0 -15 -10
-8 -11 -15 -14 -15 -7 0 7 -5 9 -11 5 -6 -3 -4 7 5 23 19 37 81 93 103 93 9 0
2 -9 -18 -23z m621 3 c0 -11 -8 -37 -17 -58 l-17 -37 -3 31 c-4 34 11 84 27
84 5 0 10 -9 10 -20z m-620 -100 c0 -16 -38 -88 -50 -95 -14 -9 -13 41 1 68
18 33 49 50 49 27z m370 -15 c0 -60 -65 -166 -91 -149 -8 4 -9 3 -5 -4 4 -7 4
-12 -1 -13 -4 0 -18 -2 -30 -3 -13 -2 -23 1 -23 6 0 24 53 109 89 141 44 40
61 46 61 22z m-495 -54 c0 -36 6 -65 15 -76 13 -15 11 -21 -23 -52 -72 -65
-104 -29 -72 81 14 48 35 76 80 106 0 0 0 -26 0 -59z m-146 -163 c4 7 12 3 20
-9 9 -16 9 -19 0 -14 -7 5 -10 4 -6 -3 4 -5 17 -8 30 -5 17 4 19 2 8 -5 -11
-8 -8 -11 15 -15 29 -4 29 -4 -4 -6 -34 -1 -83 35 -81 61 0 10 2 10 6 -1 4 -9
8 -10 12 -3z m55 -17 c-2 -3 -12 3 -22 13 -16 17 -16 18 5 5 12 -7 20 -15 17
-18z"/>
<path d="M6726 861 c-4 -5 -2 -12 3 -15 5 -4 12 -2 15 3 4 5 2 12 -3 15 -5 4
-12 2 -15 -3z"/>
<path d="M6635 640 c-10 -11 -16 -22 -13 -25 3 -3 13 6 22 20 20 30 16 32 -9
5z"/>
<path d="M4953 940 c0 -25 2 -35 4 -22 2 12 2 32 0 45 -2 12 -4 2 -4 -23z"/>
<path d="M2993 796 c-23 -20 -26 -28 -17 -43 15 -25 61 -29 85 -7 23 21 24 37
3 58 -21 22 -38 20 -71 -8z m23 -13 c-14 -14 -30 -23 -34 -19 -4 4 4 16 17 27
35 28 48 23 17 -8z"/>
<path d="M1498 713 c12 -2 30 -2 40 0 9 3 -1 5 -23 4 -22 0 -30 -2 -17 -4z"/>
<path d="M5828 713 c12 -2 30 -2 40 0 9 3 -1 5 -23 4 -22 0 -30 -2 -17 -4z"/>
<path d="M6352 660 c0 -14 2 -19 5 -12 2 6 2 18 0 25 -3 6 -5 1 -5 -13z"/>
<path d="M6372 660 c0 -14 2 -19 5 -12 2 6 2 18 0 25 -3 6 -5 1 -5 -13z"/>
<path d="M7562 660 c0 -14 2 -19 5 -12 2 6 2 18 0 25 -3 6 -5 1 -5 -13z"/>
<path d="M7582 660 c0 -14 2 -19 5 -12 2 6 2 18 0 25 -3 6 -5 1 -5 -13z"/>
<path d="M3301 667 c2 -1 13 -9 24 -17 19 -14 19 -14 6 3 -7 9 -18 17 -24 17
-6 0 -8 -1 -6 -3z"/>
<path d="M7152 610 c0 -19 2 -27 5 -17 2 9 2 25 0 35 -3 9 -5 1 -5 -18z"/>
<path d="M6346 618 c3 -5 10 -6 15 -3 13 9 11 12 -6 12 -8 0 -12 -4 -9 -9z"/>
<path d="M7556 618 c3 -5 10 -6 15 -3 13 9 11 12 -6 12 -8 0 -12 -4 -9 -9z"/>
<path d="M4820 570 c-8 -5 -10 -10 -5 -10 6 0 17 5 25 10 8 5 11 10 5 10 -5 0
-17 -5 -25 -10z"/>
<path d="M5850 556 c0 -2 8 -10 18 -17 15 -13 16 -12 3 4 -13 16 -21 21 -21
13z"/>
<path d="M3676 528 c3 -5 10 -6 15 -3 13 9 11 12 -6 12 -8 0 -12 -4 -9 -9z"/>
<path d="M2240 400 c0 -5 5 -10 11 -10 5 0 7 5 4 10 -3 6 -8 10 -11 10 -2 0
-4 -4 -4 -10z"/>
<path d="M7070 370 c-9 -6 -10 -10 -3 -10 6 0 15 5 18 10 8 12 4 12 -15 0z"/>
</g>
</svg>
